
<svg width="164px" height="174px" viewBox="0 0 164 174" version="1.1" xmlns="http://www.w3.org/2000/svg" xmlns:xlink="http://www.w3.org/1999/xlink">
    <!-- Generator: Sketch 47.1 (45422) - http://www.bohemiancoding.com/sketch -->
    <desc>Created with Sketch.</desc>
    <defs></defs>
    <g id="Page-1" stroke="none" stroke-width="1" fill="none" fill-rule="evenodd">
        <g id="Logo" transform="translate(-31.000000, -27.000000)">
            <polygon id="Body" stroke="#9FB8D1" stroke-width="8" fill="#B3CDE8" points="56 31 171 31 190 186.473675 151.5 196 114 133.019043 112 133.019043 74.5 196 36 186.473675"></polygon>
            <circle id="Oval" fill="#FFE2E2" cx="148.5" cy="100.5" r="5.5"></circle>
            <circle id="Oval" fill="#FFE2E2" cx="78.5" cy="100.5" r="5.5"></circle>
            <path d="M96.0051033,95 C96.0017076,95.1424438 96,95.2853074 96,95.4285714 C96,105.133003 103.835017,113 113.5,113 C123.164983,113 131,105.133003 131,95.4285714 C131,95.2853074 130.998292,95.1424438 130.994897,95 L96.0051033,95 Z" id="Mask" fill="#647382"></path>
            <path d="M126.301724,107.409093 C123.107188,104.081034 118.553767,102 113.5,102 C108.446233,102 103.892812,104.081034 100.698276,107.409093 C103.892815,110.849017 108.446234,113 113.5,113 C118.553766,113 123.107185,110.849017 126.301721,107.409091 Z" id="Combined-Shape" fill="#FF6666"></path>
            <path d="M127.000649,82.6093835 C127.000217,82.572977 127,82.5365154 127,82.5 C127,77.8055796 130.581722,74 135,74 C139.418278,74 143,77.8055796 143,82.5 C143,82.5365154 142.999783,82.572977 142.999351,82.6093835 C142.999783,82.6284223 143,82.6475175 143,82.6666667 C143,83.9553311 142.016782,85 140.803922,85 C139.591061,85 138.607843,83.9553311 138.607843,82.6666667 L138.604494,82.6666667 C138.606719,82.6114061 138.607843,82.5558425 138.607843,82.5 C138.607843,80.3829085 136.992557,78.6666667 135,78.6666667 C133.007443,78.6666667 131.392157,80.3829085 131.392157,82.5 C131.392157,82.5558425 131.393281,82.6114061 131.395506,82.6666667 L131.392157,82.6666667 C131.392157,83.9553311 130.408939,85 129.196078,85 C127.983218,85 127,83.9553311 127,82.6666667 C127,82.6475175 127.000217,82.6284223 127.000649,82.6093835 Z" id="Combined-Shape" fill="#647382"></path>
            <path d="M83.0006488,82.6093835 C83.0002167,82.572977 83,82.5365154 83,82.5 C83,77.8055796 86.581722,74 91,74 C95.418278,74 99,77.8055796 99,82.5 C99,82.5365154 98.9997833,82.572977 98.9993512,82.6093835 C98.9997829,82.6284223 99,82.6475175 99,82.6666667 C99,83.9553311 98.0167822,85 96.8039216,85 C95.5910609,85 94.6078431,83.9553311 94.6078431,82.6666667 L94.6044944,82.6666667 C94.6067193,82.6114061 94.6078431,82.5558425 94.6078431,82.5 C94.6078431,80.3829085 92.9925567,78.6666667 91,78.6666667 C89.0074433,78.6666667 87.3921569,80.3829085 87.3921569,82.5 C87.3921569,82.5558425 87.3932807,82.6114061 87.3955056,82.6666667 L87.3921569,82.6666667 C87.3921569,83.9553311 86.4089391,85 85.1960784,85 C83.9832178,85 83,83.9553311 83,82.6666667 C83,82.6475175 83.0002171,82.6284223 83.0006488,82.6093835 Z" id="Combined-Shape" fill="#647382"></path>
        </g>
    </g>
</svg>
